<?xml version="1.0" encoding="UTF-8"?>
<svg xmlns="http://www.w3.org/2000/svg" xmlns:xlink="http://www.w3.org/1999/xlink" width="514px" height="px" viewBox="0 0 514 155" version="1.1">
<g id="surface1">
<path style=" stroke:none;fill-rule:evenodd;fill:rgb(100%,60%,0%);fill-opacity:1;" d="M 318.875 121.355469 C 289.007812 143.414062 245.710938 155.183594 208.4375 155.183594 C 156.171875 155.183594 109.117188 135.816406 73.519531 103.605469 C 70.722656 101.070312 73.230469 97.621094 76.585938 99.59375 C 115.003906 121.984375 162.503906 135.457031 211.570312 135.457031 C 244.660156 135.457031 281.0625 128.597656 314.535156 114.363281 C 319.589844 112.210938 323.820312 117.679688 318.875 121.355469 "/>
<path style=" stroke:none;fill-rule:evenodd;fill:rgb(100%,60%,0%);fill-opacity:1;" d="M 331.292969 107.125 C 327.488281 102.238281 306.054688 104.816406 296.433594 105.957031 C 293.503906 106.316406 293.054688 103.761719 295.695312 101.921875 C 312.765625 89.886719 340.78125 93.359375 344.046875 97.394531 C 347.3125 101.453125 343.195312 129.582031 327.152344 143.011719 C 324.691406 145.074219 322.34375 143.972656 323.441406 141.238281 C 327.042969 132.230469 335.121094 112.03125 331.292969 107.125 "/>
<path style=" stroke:none;fill-rule:evenodd;fill:rgb(0%,0%,0%);fill-opacity:1;" d="M 297.105469 16.945312 L 297.105469 5.246094 C 297.105469 3.472656 298.449219 2.285156 300.058594 2.285156 L 352.347656 2.285156 C 354.023438 2.285156 355.367188 3.496094 355.367188 5.246094 L 355.367188 15.265625 C 355.34375 16.945312 353.9375 19.144531 351.429688 22.617188 L 324.335938 61.375 C 334.402344 61.128906 345.03125 62.628906 354.160156 67.785156 C 356.21875 68.949219 356.777344 70.652344 356.933594 72.335938 L 356.933594 84.820312 C 356.933594 86.523438 355.054688 88.519531 353.085938 87.488281 C 337 79.035156 315.632812 78.117188 297.84375 87.578125 C 296.03125 88.5625 294.128906 86.589844 294.128906 84.886719 L 294.128906 73.03125 C 294.128906 71.125 294.152344 67.875 296.054688 64.984375 L 327.445312 19.882812 L 300.125 19.882812 C 298.449219 19.882812 297.105469 18.695312 297.105469 16.945312 "/>
<path style=" stroke:none;fill-rule:evenodd;fill:rgb(0%,0%,0%);fill-opacity:1;" d="M 106.367188 89.953125 L 90.457031 89.953125 C 88.9375 89.839844 87.730469 88.699219 87.617188 87.242188 L 87.617188 5.445312 C 87.617188 3.8125 88.980469 2.511719 90.683594 2.511719 L 105.515625 2.511719 C 107.058594 2.578125 108.289062 3.765625 108.402344 5.246094 L 108.402344 15.9375 L 108.691406 15.9375 C 112.5625 5.605469 119.835938 0.785156 129.636719 0.785156 C 139.59375 0.785156 145.8125 5.605469 150.285156 15.9375 C 154.136719 5.605469 162.882812 0.785156 172.257812 0.785156 C 178.925781 0.785156 186.21875 3.542969 190.671875 9.726562 C 195.707031 16.609375 194.675781 26.605469 194.675781 35.371094 L 194.65625 86.996094 C 194.65625 88.628906 193.289062 89.953125 191.589844 89.953125 L 175.703125 89.953125 C 174.113281 89.839844 172.839844 88.5625 172.839844 86.996094 L 172.839844 43.644531 C 172.839844 40.191406 173.152344 31.582031 172.390625 28.3125 C 171.207031 22.820312 167.648438 21.273438 163.039062 21.273438 C 159.191406 21.273438 155.164062 23.851562 153.53125 27.972656 C 151.898438 32.097656 152.054688 39.003906 152.054688 43.644531 L 152.054688 86.996094 C 152.054688 88.628906 150.691406 89.953125 148.988281 89.953125 L 133.101562 89.953125 C 131.492188 89.839844 130.238281 88.5625 130.238281 86.996094 L 130.21875 43.644531 C 130.21875 34.519531 131.714844 21.09375 120.417969 21.09375 C 108.984375 21.09375 109.433594 34.183594 109.433594 43.644531 L 109.433594 86.996094 C 109.433594 88.628906 108.066406 89.953125 106.367188 89.953125 "/>
<path style=" stroke:none;fill-rule:evenodd;fill:rgb(0%,0%,0%);fill-opacity:1;" d="M 400.382812 0.785156 C 423.988281 0.785156 436.765625 21.09375 436.765625 46.914062 C 436.765625 71.863281 422.648438 91.65625 400.382812 91.65625 C 377.203125 91.65625 364.585938 71.347656 364.585938 46.042969 C 364.585938 20.578125 377.363281 0.785156 400.382812 0.785156 M 400.519531 17.484375 C 388.792969 17.484375 388.054688 33.488281 388.054688 43.464844 C 388.054688 53.460938 387.898438 74.800781 400.382812 74.800781 C 412.710938 74.800781 413.292969 57.585938 413.292969 47.09375 C 413.292969 40.191406 413.003906 31.941406 410.921875 25.398438 C 409.132812 19.703125 405.574219 17.484375 400.519531 17.484375 "/>
<path style=" stroke:none;fill-rule:evenodd;fill:rgb(0%,0%,0%);fill-opacity:1;" d="M 467.371094 89.953125 L 451.53125 89.953125 C 449.941406 89.839844 448.667969 88.5625 448.667969 86.996094 L 448.644531 5.179688 C 448.78125 3.675781 450.097656 2.511719 451.710938 2.511719 L 466.453125 2.511719 C 467.84375 2.578125 468.984375 3.519531 469.296875 4.796875 L 469.296875 17.304688 L 469.585938 17.304688 C 474.039062 6.121094 480.28125 0.785156 491.269531 0.785156 C 498.40625 0.785156 505.363281 3.363281 509.839844 10.421875 C 514 16.96875 514 27.972656 514 35.886719 L 514 87.375 C 513.820312 88.808594 512.5 89.953125 510.933594 89.953125 L 494.980469 89.953125 C 493.527344 89.839844 492.320312 88.765625 492.164062 87.375 L 492.164062 42.949219 C 492.164062 34.003906 493.191406 20.914062 482.207031 20.914062 C 478.335938 20.914062 474.777344 23.515625 473.011719 27.460938 C 470.773438 32.457031 470.480469 37.433594 470.480469 42.949219 L 470.480469 86.996094 C 470.460938 88.628906 469.074219 89.953125 467.371094 89.953125 "/>
<path style=" stroke:none;fill-rule:evenodd;fill:rgb(0%,0%,0%);fill-opacity:1;" d="M 255.421875 50.882812 C 255.421875 57.09375 255.578125 62.269531 252.445312 67.785156 C 249.917969 72.265625 245.890625 75.023438 241.4375 75.023438 C 235.332031 75.023438 231.75 70.363281 231.75 63.480469 C 231.75 49.898438 243.898438 47.429688 255.421875 47.429688 L 255.421875 50.882812 M 271.464844 89.730469 C 270.414062 90.671875 268.890625 90.738281 267.707031 90.109375 C 262.425781 85.71875 261.464844 83.675781 258.578125 79.484375 C 249.851562 88.40625 243.652344 91.074219 232.355469 91.074219 C 218.953125 91.074219 208.550781 82.804688 208.550781 66.238281 C 208.550781 53.304688 215.53125 44.496094 225.507812 40.191406 C 234.144531 36.378906 246.203125 35.707031 255.421875 34.65625 L 255.421875 32.59375 C 255.421875 28.804688 255.714844 24.320312 253.476562 21.046875 C 251.550781 18.113281 247.835938 16.902344 244.546875 16.902344 C 238.484375 16.902344 233.09375 20.015625 231.773438 26.472656 C 231.503906 27.90625 230.453125 29.320312 229 29.386719 L 213.582031 27.726562 C 212.285156 27.4375 210.832031 26.382812 211.210938 24.386719 C 214.746094 5.648438 231.660156 0 246.785156 0 C 254.527344 0 264.640625 2.0625 270.75 7.933594 C 278.492188 15.175781 277.753906 24.835938 277.753906 35.347656 L 277.753906 60.1875 C 277.753906 67.648438 280.839844 70.921875 283.75 74.957031 C 284.753906 76.390625 284.980469 78.117188 283.679688 79.195312 C 280.4375 81.90625 274.664062 86.949219 271.488281 89.773438 L 271.464844 89.730469 "/>
<path style=" stroke:none;fill-rule:evenodd;fill:rgb(0%,0%,0%);fill-opacity:1;" d="M 46.875 50.882812 C 46.875 57.09375 47.03125 62.269531 43.898438 67.785156 C 41.371094 72.265625 37.363281 75.023438 32.890625 75.023438 C 26.78125 75.023438 23.222656 70.363281 23.222656 63.480469 C 23.222656 49.898438 35.375 47.429688 46.875 47.429688 L 46.875 50.882812 M 62.914062 89.730469 C 61.863281 90.671875 60.34375 90.738281 59.15625 90.109375 C 53.875 85.71875 52.9375 83.675781 50.027344 79.484375 C 41.300781 88.40625 35.128906 91.074219 23.804688 91.074219 C 10.425781 91.074219 0 82.804688 0 66.238281 C 0 53.304688 7.003906 44.496094 16.960938 40.191406 C 25.597656 36.378906 37.65625 35.707031 46.875 34.65625 L 46.875 32.59375 C 46.875 28.804688 47.164062 24.320312 44.949219 21.046875 C 43.003906 18.113281 39.289062 16.902344 36.023438 16.902344 C 29.957031 16.902344 24.542969 20.015625 23.222656 26.472656 C 22.957031 27.90625 21.902344 29.320312 20.472656 29.386719 L 5.035156 27.726562 C 3.738281 27.4375 2.304688 26.382812 2.664062 24.386719 C 6.21875 5.648438 23.113281 0 38.238281 0 C 45.980469 0 56.09375 2.0625 62.199219 7.933594 C 69.941406 15.175781 69.203125 24.835938 69.203125 35.347656 L 69.203125 60.1875 C 69.203125 67.648438 72.289062 70.921875 75.199219 74.957031 C 76.230469 76.390625 76.453125 78.117188 75.15625 79.195312 C 71.910156 81.90625 66.136719 86.949219 62.960938 89.773438 L 62.914062 89.730469 "/>
</g>
</svg>
