<?xml version="1.0" encoding="UTF-8"?>
<svg xmlns="http://www.w3.org/2000/svg" xmlns:xlink="http://www.w3.org/1999/xlink" width="514px" height="px" viewBox="0 0 511 113" version="1.1">
<g id="surface1">
<path style=" stroke:none;fill-rule:nonzero;fill:rgb(0%,25.490196%,52.54902%);fill-opacity:1;" d="M 127.726562 67.089844 L 134.332031 67.144531 L 154.679688 109.902344 L 175.882812 105.949219 L 152.101562 62.167969 C 161.550781 56.460938 169.003906 47.667969 169.003906 32.449219 C 169.003906 15.019531 156.113281 5.648438 136.910156 5.648438 L 102.09375 5.648438 L 102.09375 108.152344 L 122.289062 108.152344 L 122.289062 19.40625 L 132.746094 19.40625 C 140.765625 19.40625 148.800781 23.359375 148.800781 34.929688 C 148.800781 42.347656 144.410156 53.246094 130.703125 53.375 L 127.722656 53.375 L 127.722656 67.089844 Z M 85.640625 60.835938 L 85.640625 103.410156 C 75.429688 107.085938 64.679688 109.738281 53.78125 109.738281 C 20.828125 109.738281 0 86.171875 0 55.828125 C 0 27.695312 20.695312 3.097656 54.328125 3.097656 C 64.808594 3.097656 75.292969 6.628906 81.554688 11.042969 L 75.425781 23.269531 C 70.257812 20.320312 62.222656 17.820312 54.863281 17.820312 C 34.445312 17.820312 20.417969 32.703125 20.417969 56.117188 C 20.417969 80.570312 36.488281 95.007812 52.964844 95.007812 C 58.132812 95.007812 62.355469 94.417969 66.441406 92.503906 L 66.441406 60.835938 Z M 186.730469 5.871094 L 206.65625 5.871094 L 206.65625 106.957031 L 186.730469 106.957031 Z M 280.152344 18.890625 L 247.632812 18.890625 L 247.632812 51.820312 L 271.167969 51.820312 L 271.167969 64.964844 L 247.632812 64.964844 L 247.632812 106.957031 L 227.710938 106.957031 L 227.710938 5.871094 L 280.152344 5.871094 Z M 284.570312 54.9375 C 284.570312 26.070312 304.714844 3.097656 332.09375 3.097656 C 359.464844 3.097656 379.605469 26.070312 379.605469 54.9375 C 379.605469 85.726562 361.363281 109.734375 332.09375 109.734375 C 302.816406 109.738281 284.570312 85.726562 284.570312 54.9375 M 359.183594 54.9375 C 359.183594 35.945312 351.148438 16.53125 332.085938 16.53125 C 313.019531 16.53125 304.988281 35.945312 304.988281 54.9375 C 304.988281 74.679688 312.070312 96.292969 332.085938 96.292969 C 352.105469 96.292969 359.183594 74.683594 359.183594 54.9375 M 393.300781 5.871094 L 413.226562 5.871094 L 413.226562 91.570312 L 439.382812 91.570312 L 439.382812 106.957031 L 393.300781 106.957031 Z M 501.265625 23.492188 C 497.015625 20.460938 491.398438 17.714844 485.78125 17.714844 C 477.691406 17.714844 473.3125 22.484375 473.3125 28.40625 C 473.3125 35.042969 480.023438 40.089844 491.261719 49.484375 C 504.148438 60.320312 511 68.839844 511 81.25 C 511 93.960938 499.488281 108.691406 477.832031 108.691406 C 467.824219 108.691406 456.714844 105.515625 449.59375 98.585938 L 456.582031 87.027344 C 461.652344 90.925781 467.550781 95.121094 476.183594 95.121094 C 484.132812 95.121094 491.121094 90.644531 491.121094 81.109375 C 491.121094 69.996094 478.234375 62.628906 470.566406 56.273438 C 461.238281 48.332031 453.421875 42.113281 453.421875 28.691406 C 453.421875 15.117188 466.441406 4.140625 483.851562 4.140625 C 494.816406 4.140625 503.589844 8.328125 508.117188 12.949219 Z M 501.265625 23.492188 "/>
</g>
</svg>
